<svg xmlns="http://www.w3.org/2000/svg" viewBox="0 0 64 64">
  <rect width="64" height="64" rx="16" fill="#0D0A07"/>
  <path d="M13 33H51" fill="none" stroke="#C9AA89" stroke-width="3.4" stroke-linecap="round"/>
  <path d="M17 33V25.8C17 21.8 20.2 18.6 24.2 18.6H29"
        fill="none" stroke="#C9AA89" stroke-width="3.4" stroke-linecap="round" stroke-linejoin="round"/>
  <path d="M29 18.6C29 16.2 30.9 14.3 33.3 14.3C35.7 14.3 37.6 16.2 37.6 18.6"
        fill="none" stroke="#C9AA89" stroke-width="3.4" stroke-linecap="round" stroke-linejoin="round"/>
  <path d="M10.5 33H53.5C55.8 33 57.6 34.8 57.6 37.1C57.6 39.4 55.8 41.2 53.5 41.2H51.2L48.8 47.2C48 49.1 46.2 50.4 44.1 50.4H19.9C17.8 50.4 16 49.1 15.2 47.2L12.8 41.2H10.5C8.2 41.2 6.4 39.4 6.4 37.1C6.4 34.8 8.2 33 10.5 33Z"
        fill="none" stroke="#C9AA89" stroke-width="3.4" stroke-linecap="round" stroke-linejoin="round"/>
  <path d="M22 50.4L20.5 54" fill="none" stroke="#C9AA89" stroke-width="3.4" stroke-linecap="round"/>
  <path d="M42 50.4L43.5 54" fill="none" stroke="#C9AA89" stroke-width="3.4" stroke-linecap="round"/>
</svg>